<?xml version="1.0" encoding="UTF-8"?>
<!DOCTYPE svg PUBLIC "-//W3C//DTD SVG 1.1//EN" "http://www.w3.org/Graphics/SVG/1.1/DTD/svg11.dtd">
<!-- Creator: CorelDRAW 2017 -->
<svg xmlns="http://www.w3.org/2000/svg" xml:space="preserve" width="210mm" height="297mm" version="1.1" style="shape-rendering:geometricPrecision; text-rendering:geometricPrecision; image-rendering:optimizeQuality; fill-rule:evenodd; clip-rule:evenodd"
viewBox="0 0 21000 29700"
 xmlns:xlink="http://www.w3.org/1999/xlink">
 <defs>
  <style type="text/css">
   <![CDATA[
    .fil0 {fill:#2B2A29;fill-rule:nonzero}
   ]]>
  </style>
 </defs>
 <g id="Vrstva_x0020_1">
  <metadata id="CorelCorpID_0Corel-Layer"/>
  <g id="_2061972860880">
   <path class="fil0" d="M1230 19607l1086 0 0 307 -669 0 0 331 631 0 0 312 -631 0 0 373 694 0 0 317 -1111 0 0 -1640zm1515 0l417 0 0 708 484 -708 467 0 -574 754 633 886 -518 0 -491 -760 0 760 -417 0 0 -1640zm2339 279c-108,0 -194,49 -260,146 -66,97 -98,227 -98,390 0,164 33,295 98,392 65,98 152,147 261,147 108,0 194,-49 259,-146 65,-97 97,-228 97,-393 0,-162 -32,-292 -97,-390 -65,-98 -151,-147 -258,-147zm0 -319c243,0 432,76 570,228 137,152 205,362 205,631 0,270 -68,481 -205,632 -137,151 -327,227 -570,227 -244,0 -435,-76 -572,-227 -137,-151 -206,-362 -206,-632 0,-269 69,-480 206,-631 138,-152 328,-228 571,-228zm1159 40l417 0 0 1316 628 0 0 324 -1045 0 0 -1640zm1380 0l417 0 0 1640 -417 0 0 -1640zm857 0l417 0 0 708 484 -708 467 0 -574 754 633 886 -518 0 -491 -760 0 760 -417 0 0 -1640zm1547 0l435 0 349 1276 344 -1276 426 0 -530 1640 -522 0 -502 -1640zm1849 0l417 0 0 1640 -417 0 0 -1640zm1276 317l0 995 180 0c147,0 260,-43 340,-130 80,-87 120,-210 120,-371 0,-158 -42,-280 -125,-366 -83,-85 -202,-128 -357,-128l-158 0zm-419 -317l548 0c143,0 262,9 359,28 96,19 175,48 236,87 114,76 199,172 258,289 58,117 87,252 87,406 0,169 -30,313 -91,432 -60,119 -152,216 -276,292 -62,37 -140,64 -237,81 -96,17 -225,25 -387,25l-496 0 0 -1640zm3051 699l-31 233c-42,-25 -84,-44 -127,-57 -43,-13 -84,-20 -123,-20 -38,0 -68,7 -89,22 -21,14 -31,35 -31,61 0,34 43,64 128,88 27,8 48,14 64,19 98,31 166,68 204,112 39,44 58,104 58,181 0,102 -38,182 -114,241 -75,59 -180,88 -313,88 -56,0 -112,-5 -167,-14 -55,-9 -109,-23 -162,-41l20 -247c44,24 90,42 138,54 48,13 96,19 145,19 46,0 81,-7 104,-20 23,-13 35,-33 35,-59 0,-39 -47,-73 -141,-103 -23,-7 -42,-13 -55,-18 -96,-33 -163,-70 -201,-110 -38,-41 -57,-94 -57,-160 0,-101 38,-179 114,-235 76,-56 182,-84 320,-84 45,0 91,4 138,13 47,8 95,21 143,38zm343 642l292 0 0 299 -292 0 0 -299zm1310 -682l-17 285c-13,-6 -27,-10 -43,-13 -16,-3 -34,-4 -55,-4 -75,0 -132,25 -170,76 -38,51 -57,125 -57,224l0 412 -315 0 0 -965 281 0 0 184c32,-72 71,-125 117,-159 46,-34 101,-51 163,-51 16,0 46,3 89,10l6 1zm78 682l292 0 0 299 -292 0 0 -299zm1127 -462c-60,0 -108,25 -145,76 -37,50 -55,117 -55,200 0,82 18,148 55,198 37,50 85,76 145,76 61,0 109,-25 146,-75 36,-50 55,-116 55,-199 0,-84 -18,-151 -55,-201 -37,-50 -85,-75 -146,-75zm0 -231c166,0 296,45 390,135 93,90 140,214 140,374 0,158 -47,282 -140,372 -94,90 -223,135 -390,135 -166,0 -295,-45 -388,-135 -93,-90 -140,-214 -140,-372 0,-160 47,-284 140,-374 93,-90 223,-135 388,-135zm837 693l292 0 0 299 -292 0 0 -299z"/>
   <path class="fil0" d="M13578 10702l0 -2286 -4328 0 0 -1 -2711 0 0 9901 2184 0 0 3 4851 0 0 -2095 -4324 0 0 -1758 2348 0 0 -2286 -2348 0 0 -1478 4328 0zm-699 6025l0 994 -4258 0 -1370 0 0 -8743 1370 0 0 7749 4258 0z"/>
  </g>
 </g>
</svg>
