<svg width="702" height="487" viewBox="0 0 702 487" fill="none" xmlns="http://www.w3.org/2000/svg">
<path d="M0.488159 423.052H41.5338V434.655H16.2488V447.165H40.0976V458.957H16.2488V473.055H42.4787V485.036H0.488159V423.052ZM57.748 423.052H73.5086V449.811L91.8015 423.052H109.452L87.7575 451.55L111.682 485.036H92.1039L73.5464 456.312V485.036H57.7858V423.052H57.748ZM146.151 433.597C142.069 433.597 138.819 435.449 136.324 439.115C133.83 442.781 132.62 447.694 132.62 453.855C132.62 460.054 133.868 465.005 136.324 468.671C138.781 472.375 142.069 474.227 146.189 474.227C150.271 474.227 153.521 472.375 155.978 468.709C158.435 465.043 159.644 460.091 159.644 453.855C159.644 447.732 158.435 442.819 155.978 439.115C153.521 435.411 150.271 433.559 146.227 433.559L146.151 433.597ZM146.151 421.54C155.335 421.54 162.479 424.413 167.694 430.157C172.872 435.902 175.442 443.839 175.442 454.006C175.442 464.211 172.872 472.186 167.694 477.893C162.517 483.6 155.335 486.472 146.151 486.472C136.929 486.472 129.71 483.6 124.532 477.893C119.354 472.186 116.746 464.211 116.746 454.006C116.746 443.839 119.354 435.865 124.532 430.157C129.748 424.413 136.929 421.54 146.113 421.54H146.151ZM189.956 423.052H205.717V472.791H229.452V485.036H189.956V423.052ZM242.113 423.052H257.874V485.036H242.113V423.052ZM274.504 423.052H290.265V449.811L308.557 423.052H326.208L304.513 451.55L328.438 485.036H308.86L290.302 456.312V485.036H274.542V423.052H274.504ZM332.973 423.052H349.414L362.605 471.279L375.606 423.052H391.707L371.676 485.036H351.946L332.973 423.052ZM402.857 423.052H418.617V485.036H402.857V423.052ZM451.083 435.033V472.639H457.887C463.442 472.639 467.713 471.014 470.737 467.726C473.761 464.438 475.272 459.789 475.272 453.704C475.272 447.732 473.685 443.121 470.548 439.871C467.411 436.658 462.913 435.033 457.055 435.033H451.083ZM435.247 423.052H455.959C461.364 423.052 465.861 423.392 469.528 424.11C473.156 424.828 476.142 425.924 478.447 427.398C482.756 430.271 485.968 433.899 488.198 438.321C490.391 442.743 491.487 447.846 491.487 453.666C491.487 460.054 490.353 465.496 488.047 469.994C485.779 474.491 482.302 478.157 477.616 481.03C475.272 482.428 472.324 483.449 468.658 484.091C465.03 484.734 460.154 485.036 454.031 485.036H435.285V423.052H435.247ZM550.561 449.471L549.389 458.277C547.802 457.332 546.214 456.614 544.589 456.123C542.964 455.631 541.414 455.367 539.94 455.367C538.504 455.367 537.37 455.631 536.576 456.198C535.783 456.728 535.405 457.521 535.405 458.504C535.405 459.789 537.03 460.923 540.242 461.83C541.263 462.132 542.057 462.359 542.661 462.548C546.365 463.72 548.935 465.118 550.372 466.781C551.846 468.444 552.564 470.712 552.564 473.622C552.564 477.477 551.128 480.501 548.255 482.731C545.42 484.961 541.452 486.057 536.425 486.057C534.309 486.057 532.192 485.868 530.113 485.528C528.035 485.187 525.994 484.658 523.991 483.978L524.746 474.643C526.409 475.55 528.148 476.23 529.962 476.683C531.776 477.175 533.591 477.402 535.442 477.402C537.181 477.402 538.504 477.137 539.373 476.646C540.242 476.154 540.696 475.398 540.696 474.416C540.696 472.942 538.92 471.657 535.367 470.523C534.498 470.258 533.779 470.031 533.288 469.843C529.66 468.595 527.128 467.197 525.691 465.685C524.255 464.135 523.537 462.132 523.537 459.638C523.537 455.82 524.973 452.872 527.846 450.756C530.718 448.639 534.724 447.581 539.94 447.581C541.641 447.581 543.379 447.732 545.156 448.072C546.932 448.375 548.746 448.866 550.561 449.509V449.471ZM563.524 473.735H574.561V485.036H563.524V473.735ZM613.036 447.959L612.394 458.731C611.902 458.504 611.373 458.353 610.768 458.239C610.164 458.126 609.483 458.088 608.69 458.088C605.855 458.088 603.701 459.033 602.265 460.961C600.828 462.888 600.11 465.685 600.11 469.427V484.998H588.205V448.526H598.825V455.48C600.035 452.759 601.509 450.756 603.247 449.471C604.986 448.186 607.065 447.543 609.408 447.543C610.013 447.543 611.146 447.657 612.772 447.921L612.998 447.959H613.036ZM615.984 473.735H627.02V485.036H615.984V473.735ZM658.579 456.274C656.312 456.274 654.498 457.219 653.099 459.146C651.701 461.036 651.02 463.569 651.02 466.706C651.02 469.805 651.701 472.299 653.099 474.189C654.498 476.079 656.312 477.061 658.579 477.061C660.885 477.061 662.699 476.117 664.098 474.227C665.458 472.337 666.176 469.843 666.176 466.706C666.176 463.531 665.496 460.998 664.098 459.109C662.699 457.219 660.885 456.274 658.579 456.274ZM658.579 447.543C664.854 447.543 669.767 449.244 673.32 452.646C676.835 456.047 678.611 460.734 678.611 466.781C678.611 472.753 676.835 477.439 673.32 480.841C669.767 484.243 664.891 485.943 658.579 485.943C652.305 485.943 647.43 484.243 643.915 480.841C640.4 477.439 638.624 472.753 638.624 466.781C638.624 460.734 640.4 456.047 643.915 452.646C647.43 449.244 652.343 447.543 658.579 447.543ZM690.214 473.735H701.25V485.036H690.214V473.735Z" fill="#FEFEFE"/>
<path d="M467.184 86.485V0.0850365H303.606V0.0472412H201.143V374.258H283.688V374.372H467.033V295.191H303.606V228.746H392.35V142.346H303.606V86.485H467.184ZM440.765 314.202V351.77H279.833H228.054V21.326H279.833V314.202H440.765Z" fill="#FEFEFE"/>
</svg>
