<svg width="701" height="487" viewBox="0 0 701 487" fill="none" xmlns="http://www.w3.org/2000/svg">
<path d="M0 423.005H41.0457V434.608H15.7606V447.118H39.6094V458.91H15.7606V473.008H41.9906V484.989H0V423.005ZM57.2598 423.005H73.0205V449.764L91.3134 423.005H108.964L87.2693 451.502L111.194 484.989H91.6157L73.0583 456.265V484.989H57.2976V423.005H57.2598ZM145.663 433.55C141.581 433.55 138.331 435.402 135.836 439.068C133.342 442.734 132.132 447.647 132.132 453.808C132.132 460.006 133.38 464.957 135.836 468.624C138.293 472.328 141.581 474.18 145.701 474.18C149.783 474.18 153.033 472.328 155.49 468.661C157.946 464.995 159.156 460.044 159.156 453.808C159.156 447.685 157.946 442.772 155.49 439.068C153.033 435.364 149.783 433.512 145.739 433.512L145.663 433.55ZM145.663 421.493C154.847 421.493 161.991 424.365 167.206 430.11C172.384 435.855 174.954 443.792 174.954 453.959C174.954 464.164 172.384 472.139 167.206 477.846C162.028 483.553 154.847 486.425 145.663 486.425C136.441 486.425 129.222 483.553 124.044 477.846C118.866 472.139 116.258 464.164 116.258 453.959C116.258 443.792 118.866 435.817 124.044 430.11C129.26 424.365 136.441 421.493 145.625 421.493H145.663ZM189.468 423.005H205.228V472.743H228.964V484.989H189.468V423.005ZM241.625 423.005H257.386V484.989H241.625V423.005ZM274.016 423.005H289.776V449.764L308.069 423.005H325.72L304.025 451.502L327.95 484.989H308.372L289.814 456.265V484.989H274.054V423.005H274.016ZM332.485 423.005H348.926L362.117 471.232L375.118 423.005H391.219L371.187 484.989H351.458L332.485 423.005ZM402.368 423.005H418.129V484.989H402.368V423.005ZM450.595 434.986V472.592H457.398C462.954 472.592 467.225 470.967 470.249 467.679C473.272 464.391 474.784 459.742 474.784 453.657C474.784 447.685 473.197 443.074 470.06 439.824C466.923 436.611 462.425 434.986 456.567 434.986H450.595ZM434.759 423.005H455.471C460.876 423.005 465.373 423.345 469.039 424.063C472.668 424.781 475.654 425.877 477.959 427.351C482.268 430.224 485.48 433.852 487.71 438.274C489.902 442.696 490.998 447.798 490.998 453.619C490.998 460.006 489.865 465.449 487.559 469.946C485.291 474.444 481.814 478.11 477.128 480.983C474.784 482.381 471.836 483.402 468.17 484.044C464.542 484.687 459.666 484.989 453.543 484.989H434.797V423.005H434.759ZM550.072 449.424L548.901 458.23C547.313 457.285 545.726 456.567 544.101 456.076C542.476 455.584 540.926 455.32 539.452 455.32C538.016 455.32 536.882 455.584 536.088 456.151C535.294 456.68 534.917 457.474 534.917 458.457C534.917 459.742 536.542 460.876 539.754 461.783C540.775 462.085 541.568 462.312 542.173 462.501C545.877 463.672 548.447 465.071 549.883 466.734C551.357 468.397 552.076 470.665 552.076 473.575C552.076 477.43 550.639 480.454 547.767 482.683C544.932 484.913 540.964 486.009 535.937 486.009C533.82 486.009 531.704 485.82 529.625 485.48C527.546 485.14 525.506 484.611 523.502 483.931L524.258 474.595C525.921 475.502 527.66 476.183 529.474 476.636C531.288 477.128 533.102 477.354 534.954 477.354C536.693 477.354 538.016 477.09 538.885 476.598C539.754 476.107 540.208 475.351 540.208 474.369C540.208 472.894 538.431 471.609 534.879 470.476C534.009 470.211 533.291 469.984 532.8 469.795C529.172 468.548 526.639 467.15 525.203 465.638C523.767 464.088 523.049 462.085 523.049 459.591C523.049 455.773 524.485 452.825 527.357 450.709C530.23 448.592 534.236 447.534 539.452 447.534C541.153 447.534 542.891 447.685 544.668 448.025C546.444 448.328 548.258 448.819 550.072 449.461V449.424ZM563.036 473.688H574.072V484.989H563.036V473.688ZM612.548 447.912L611.906 458.683C611.414 458.457 610.885 458.306 610.28 458.192C609.676 458.079 608.995 458.041 608.202 458.041C605.367 458.041 603.213 458.986 601.776 460.913C600.34 462.841 599.622 465.638 599.622 469.38V484.951H587.717V448.479H598.337V455.433C599.546 452.712 601.02 450.709 602.759 449.424C604.498 448.139 606.576 447.496 608.92 447.496C609.524 447.496 610.658 447.609 612.283 447.874L612.51 447.912H612.548ZM615.496 473.688H626.532V484.989H615.496V473.688ZM658.091 456.227C655.824 456.227 654.009 457.172 652.611 459.099C651.213 460.989 650.532 463.521 650.532 466.658C650.532 469.757 651.213 472.252 652.611 474.142C654.009 476.032 655.824 477.014 658.091 477.014C660.397 477.014 662.211 476.069 663.609 474.18C664.97 472.29 665.688 469.795 665.688 466.658C665.688 463.483 665.008 460.951 663.609 459.061C662.211 457.172 660.397 456.227 658.091 456.227ZM658.091 447.496C664.365 447.496 669.279 449.197 672.831 452.598C676.346 456 678.123 460.687 678.123 466.734C678.123 472.706 676.346 477.392 672.831 480.794C669.279 484.195 664.403 485.896 658.091 485.896C651.817 485.896 646.942 484.195 643.427 480.794C639.912 477.392 638.135 472.706 638.135 466.734C638.135 460.687 639.912 456 643.427 452.598C646.942 449.197 651.855 447.496 658.091 447.496ZM689.726 473.688H700.762V484.989H689.726V473.688Z" fill="#E0E0E0"/>
<path d="M466.696 86.4378V0.0377953H303.118V0H200.655V374.211H283.2V374.324H466.545V295.143H303.118V228.699H391.861V142.299H303.118V86.4378H466.696ZM440.277 314.154V351.723H279.345H227.565V21.2787H279.345V314.154H440.277Z" fill="#E0E0E0"/>
</svg>
